<svg width="41" height="41" viewBox="0 0 41 41" fill="none" xmlns="http://www.w3.org/2000/svg">
    <g clip-path="url(#clip0_16_1284)">
        <path d="M20.5 40.4999C30.932 40.4999 39.3889 32.0431 39.3889 21.6111C39.3889 11.179 30.932 2.72217 20.5 2.72217C10.0679 2.72217 1.61108 11.179 1.61108 21.6111C1.61108 32.0431 10.0679 40.4999 20.5 40.4999Z" fill="#F4900C"/>
        <path d="M20.5 38.2778C30.932 38.2778 39.3889 29.8209 39.3889 19.3889C39.3889 8.95684 30.932 0.5 20.5 0.5C10.0679 0.5 1.61108 8.95684 1.61108 19.3889C1.61108 29.8209 10.0679 38.2778 20.5 38.2778Z" fill="#FFCC4D"/>
        <path d="M20.5 36.0556C29.0911 36.0556 36.0556 29.0911 36.0556 20.5C36.0556 11.9089 29.0911 4.94446 20.5 4.94446C11.9089 4.94446 4.94446 11.9089 4.94446 20.5C4.94446 29.0911 11.9089 36.0556 20.5 36.0556Z" fill="#FFE8B6"/>
        <path d="M20.5 34.9445C29.0911 34.9445 36.0556 27.98 36.0556 19.3889C36.0556 10.7978 29.0911 3.83337 20.5 3.83337C11.9089 3.83337 4.94446 10.7978 4.94446 19.3889C4.94446 27.98 11.9089 34.9445 20.5 34.9445Z" fill="#FFAC33"/>
        <path d="M18.9375 9.25H22.0625V12.4643H26.75V15.6786H17.375V18.8929H26.75V28.5358H22.0625V31.7501H18.9375V28.5358H14.25V25.3215H23.625V22.1072H14.25V12.4643H18.9375V9.25Z" fill="#F4900C"/>
        <path d="M18.9375 8H22.0625V11.2143H26.75V14.4286H17.375V17.6429H26.75V27.2858H22.0625V30.5001H18.9375V27.2858H14.25V24.0715H23.625V20.8572H14.25V11.2143H18.9375V8Z" fill="#FFD983"/>
    </g>
    <defs>
        <clipPath id="clip0_16_1284">
            <rect width="40" height="40" fill="white" transform="translate(0.5 0.5)"/>
        </clipPath>
    </defs>
</svg>
