<svg width="28" height="28" viewBox="0 0 28 28" fill="none" xmlns="http://www.w3.org/2000/svg">
    <path d="M21.0183 7.37019C21.2202 7.59455 21.2595 7.84135 21.1361 8.11058L12.0495 27.5793C11.9037 27.8598 11.6681 28 11.3428 28C11.2979 28 11.2194 27.9888 11.1072 27.9663C10.9165 27.9103 10.7735 27.8037 10.6781 27.6466C10.5828 27.4896 10.5576 27.3213 10.6024 27.1418L13.9173 13.5457L7.0856 15.2452C7.04073 15.2564 6.97342 15.262 6.88367 15.262C6.68175 15.262 6.50787 15.2003 6.36204 15.0769C6.16012 14.9087 6.0872 14.6899 6.14329 14.4207L9.5255 0.538462C9.57037 0.38141 9.66012 0.252404 9.79473 0.151442C9.92935 0.0504808 10.0864 0 10.2659 0H15.7851C15.9983 0 16.1777 0.0701122 16.3236 0.210337C16.4694 0.350561 16.5423 0.516026 16.5423 0.706731C16.5423 0.796474 16.5143 0.897436 16.4582 1.00962L13.5808 8.80048L20.2443 7.15144C20.334 7.12901 20.4013 7.11779 20.4462 7.11779C20.6593 7.11779 20.85 7.20192 21.0183 7.37019Z" fill="#E6F38A"/>
</svg>
